<svg width="40" height="39" viewBox="0 0 40 39" fill="none" xmlns="http://www.w3.org/2000/svg">
<g id="Group 11">
<path id="Union" fill-rule="evenodd" clip-rule="evenodd" d="M21.8702 24.0219L14.7072 22.8281L16.0855 14.5582L23.2486 15.752L21.8702 24.0219ZM14.081 31.9314C10.3546 31.6353 7.36925 30.6953 5.223 29.5363C0.0780395 26.7579 -3.35193 19.2464 5.223 15.8166C5.83377 15.5723 6.38833 15.3518 6.89119 15.1538C7.07835 10.9246 8.08429 7.57143 9.35249 5.223C12.1309 0.0780395 19.6424 -3.35193 23.0722 5.223C23.312 5.82265 23.529 6.36812 23.7241 6.86368C28.3937 6.93447 32.0667 7.99273 34.5847 9.35251C39.7297 12.1309 43.1596 19.6424 34.5847 23.0722C33.0419 23.6893 31.8577 24.1547 30.9595 24.4884C30.7038 28.4159 29.7366 31.5487 28.5333 33.777C25.7549 38.922 18.2434 42.3519 14.8136 33.777C14.5402 33.0935 14.2966 32.4804 14.081 31.9314Z" fill="white"/>
<circle id="Ellipse 18" cx="19.22" cy="20.2197" r="7.5" fill="white"/>
</g>
</svg>
